<svg xmlns="http://www.w3.org/2000/svg" width="48" height="48" fill="none" viewBox="0 0 24 25"><path stroke="#249E55" stroke-linecap="round" stroke-linejoin="round" stroke-width="1.5" d="M22 8.77V4.73c0-1.59-.64-2.23-2.23-2.23h-4.04c-1.59 0-2.23.64-2.23 2.23v4.04c0 1.59.64 2.23 2.23 2.23h4.04c1.59 0 2.23-.64 2.23-2.23M10.5 9.02V4.48c0-1.41-.64-1.98-2.23-1.98H4.23C2.64 2.5 2 3.07 2 4.48v4.53c0 1.42.64 1.98 2.23 1.98h4.04c1.59.01 2.23-.56 2.23-1.97M10.5 20.27v-4.04c0-1.59-.64-2.23-2.23-2.23H4.23C2.64 14 2 14.64 2 16.23v4.04c0 1.59.64 2.23 2.23 2.23h4.04c1.59 0 2.23-.64 2.23-2.23"></path><path stroke="#249E55" stroke-linecap="round" stroke-width="1.5" d="M14.5 18h6M17.5 21v-6"></path></svg>