<svg xmlns="http://www.w3.org/2000/svg" width="48" height="48" fill="none" viewBox="0 0 24 25"><path stroke="#249E55" stroke-linecap="round" stroke-linejoin="round" stroke-miterlimit="10" stroke-width="1.5" d="M22 7.93v6c0 1.5-.5 2.75-1.38 3.63-.87.87-2.12 1.37-3.62 1.37v2.13c0 .8-.89 1.28-1.55.84L11 18.93H8.88Q9 18.48 9 18c0-1.02-.39-1.96-1.03-2.67A3.94 3.94 0 0 0 5 14c-1.12 0-2.14.46-2.87 1.21-.09-.4-.13-.83-.13-1.28v-6c0-3 2-5 5-5h10c3 0 5 2 5 5"></path><path stroke="#249E55" stroke-linecap="round" stroke-linejoin="round" stroke-miterlimit="10" stroke-width="1.5" d="M9 18c0 .75-.21 1.46-.58 2.06-.21.36-.48.68-.79.94-.7.63-1.62 1-2.63 1a3.97 3.97 0 0 1-3.42-1.94A3.9 3.9 0 0 1 1 18c0-1.26.58-2.39 1.5-3.12A3.999 3.999 0 0 1 9 18"></path><path stroke="#249E55" stroke-linecap="round" stroke-linejoin="round" stroke-width="1.5" d="m3.44 18 .99.99 2.13-1.97"></path><path stroke="#249E55" stroke-linecap="round" stroke-linejoin="round" stroke-miterlimit="10" stroke-width="1.5" d="M8.5 11h7"></path></svg>