<svg width="128" height="40" viewBox="0 0 128 40" fill="none" xmlns="http://www.w3.org/2000/svg">
<path d="M73.4199 27.2481V30.175H62.3333C56.3256 30.261 51.9142 25.5552 52.0013 19.9885C51.9142 14.4217 56.3256 9.71586 62.3333 9.80194C68.3409 9.71586 72.7814 14.4217 72.6943 19.9885C72.7523 22.8005 71.6205 25.383 69.763 27.2481H73.4199ZM55.2518 19.9885C55.2518 24.0918 58.0379 27.2194 62.3333 27.2194C66.6866 27.2194 69.4147 24.0918 69.4147 19.9885C69.4147 15.9138 66.6866 12.7288 62.3333 12.7288C58.0379 12.7288 55.2518 15.9138 55.2518 19.9885Z" fill="url(#paint0)"/>
<path d="M82.8444 30.2037C80.958 30.2037 76.0242 30.0602 76.0242 23.7474V14.9095H79.1586V23.8335C79.1586 23.8335 78.9845 27.4777 82.8444 27.4777C86.7044 27.4777 86.5303 23.8335 86.5303 23.8335V14.9095H89.6647V23.7474C89.6647 30.0602 84.7309 30.2037 82.8444 30.2037Z" fill="url(#paint1)"/>
<path d="M100.268 36.2008C95.8857 36.2008 94.2605 34.68 94.2605 34.68V31.8966C94.2605 31.8966 96.4662 33.4461 100.152 33.4461C103.548 33.4461 105.695 32.0688 105.695 28.5968V28.2524C104.709 29.2567 103.112 30.175 100.703 30.175C96.1179 30.175 92.8674 26.6742 92.8674 22.3414C92.8674 18.0085 96.1179 14.4791 100.703 14.4791C102.88 14.4791 104.709 15.3113 105.753 16.3443V14.9095H108.888L108.83 28.195C108.83 32.5279 106.479 36.2008 100.268 36.2008ZM100.936 27.4203C103.722 27.4203 105.928 25.5552 105.928 22.3127C105.928 19.0989 103.722 17.2338 100.936 17.2338C98.1205 17.2338 96.0018 19.5006 96.0018 22.3127C96.0018 25.1247 98.1205 27.4203 100.936 27.4203Z" fill="url(#paint2)"/>
<path d="M119.787 30.175C115.23 30.175 111.573 26.6742 111.573 22.3414C111.573 18.0085 115.23 14.4791 119.787 14.4791C124.343 14.4791 128 18.0085 128 22.3414C128 26.6742 124.343 30.175 119.787 30.175ZM119.787 27.3916C122.747 27.3916 124.982 25.1247 124.982 22.3414C124.982 19.5293 122.747 17.2625 119.787 17.2625C116.826 17.2625 114.592 19.5293 114.592 22.3414C114.592 25.1247 116.826 27.3916 119.787 27.3916Z" fill="url(#paint3)"/>
<circle cx="33.7984" cy="34.4" r="4.6" transform="rotate(180 33.7984 34.4)" fill="url(#paint4)"/>
<path d="M20 0C31.0457 0 40 8.9543 40 20C40 22.6736 39.4751 25.2246 38.5231 27.5558C38.3798 27.9068 37.9461 28.0211 37.6185 27.8301C36.4963 27.1757 35.1916 26.7999 33.7988 26.7998C29.6015 26.7998 26.1982 30.203 26.1982 34.4004C26.1983 35.6771 26.514 36.8798 27.0706 37.9358C27.2474 38.2713 27.1145 38.6998 26.7576 38.828C24.6467 39.586 22.3718 40 20 40C8.9543 40 0 31.0457 0 20C0 8.9543 8.9543 0 20 0Z" fill="url(#paint5)"/>
<defs>
<linearGradient id="paint0" x1="90" y1="9.80078" x2="90" y2="36.2008" gradientUnits="userSpaceOnUse"><stop stop-color="#249E55"/><stop offset="1" stop-color="#3BBF70"/></linearGradient>
<linearGradient id="paint1" x1="90" y1="9.80078" x2="90" y2="36.2008" gradientUnits="userSpaceOnUse"><stop stop-color="#249E55"/><stop offset="1" stop-color="#3BBF70"/></linearGradient>
<linearGradient id="paint2" x1="90" y1="9.80078" x2="90" y2="36.2008" gradientUnits="userSpaceOnUse"><stop stop-color="#249E55"/><stop offset="1" stop-color="#3BBF70"/></linearGradient>
<linearGradient id="paint3" x1="90" y1="9.80078" x2="90" y2="36.2008" gradientUnits="userSpaceOnUse"><stop stop-color="#249E55"/><stop offset="1" stop-color="#3BBF70"/></linearGradient>
<linearGradient id="paint4" x1="33.7984" y1="29.8" x2="33.7984" y2="39" gradientUnits="userSpaceOnUse"><stop stop-color="#249E55"/><stop offset="1" stop-color="#3BBF70"/></linearGradient>
<linearGradient id="paint5" x1="20" y1="0" x2="20" y2="40" gradientUnits="userSpaceOnUse"><stop stop-color="#249E55"/><stop offset="1" stop-color="#3BBF70"/></linearGradient>
</defs>
</svg>
